<svg xmlns="http://www.w3.org/2000/svg" viewBox="0 0 240 240" role="img" aria-labelledby="title desc">
  <title id="title">نشان مفهومی حزب پادشاهی ایرانیان</title>
  <desc id="desc">لوگوی مفهومی با تاج انتزاعی، خورشید و نشان هندسی الهام‌گرفته از میراث ایرانی.</desc>
  <defs>
    <linearGradient id="gold" x1="38" y1="34" x2="202" y2="210" gradientUnits="userSpaceOnUse">
      <stop offset="0" stop-color="#fff3b0"/>
      <stop offset=".45" stop-color="#d7a83d"/>
      <stop offset="1" stop-color="#8f661d"/>
    </linearGradient>
    <linearGradient id="navy" x1="38" y1="32" x2="210" y2="220" gradientUnits="userSpaceOnUse">
      <stop offset="0" stop-color="#102a52"/>
      <stop offset="1" stop-color="#06111f"/>
    </linearGradient>
  </defs>
  <rect width="240" height="240" rx="46" fill="#fffaf0"/>
  <circle cx="120" cy="120" r="82" fill="none" stroke="url(#gold)" stroke-width="8"/>
  <path d="M64 110 84 72l25 30 12-42 12 42 25-30 20 38" fill="none" stroke="url(#gold)" stroke-width="10" stroke-linecap="round" stroke-linejoin="round"/>
  <path d="M74 148c22-24 70-24 92 0" fill="none" stroke="url(#gold)" stroke-width="10" stroke-linecap="round"/>
  <path d="M88 139c12-12 24-18 32-18s20 6 32 18" fill="none" stroke="#102a52" stroke-width="8" stroke-linecap="round"/>
  <path d="M120 91v74" stroke="url(#navy)" stroke-width="12" stroke-linecap="round"/>
  <path d="M96 164h48" stroke="url(#navy)" stroke-width="12" stroke-linecap="round"/>
  <circle cx="120" cy="120" r="14" fill="url(#gold)" stroke="#102a52" stroke-width="5"/>
  <path d="M54 177c38 30 94 30 132 0" fill="none" stroke="#102a52" stroke-width="7" stroke-linecap="round"/>
</svg>
